<svg width="32" height="24" viewBox="0 0 32 24" fill="none" xmlns="http://www.w3.org/2000/svg">
<path d="M26.6453 1.99455C24.6508 1.06479 22.4914 0.389967 20.2419 6.89792e-05C20.2222 -0.00056176 20.2026 0.00313939 20.1845 0.0109123C20.1663 0.0186852 20.1501 0.030341 20.137 0.0450575C19.867 0.539928 19.5521 1.18476 19.3422 1.67963C16.9563 1.31972 14.5299 1.31972 12.1441 1.67963C11.9341 1.16976 11.6192 0.539928 11.3343 0.0450575C11.3193 0.0150654 11.2743 6.89792e-05 11.2293 6.89792e-05C8.9799 0.389967 6.83546 1.06479 4.82598 1.99455C4.81099 1.99455 4.79599 2.00954 4.78099 2.02454C0.702063 8.12794 -0.422643 14.0664 0.132212 19.9448C0.132212 19.9748 0.147208 20.0048 0.1772 20.0198C2.87649 21.9993 5.47081 23.199 8.03514 23.9938C8.08013 24.0088 8.12512 23.9938 8.14011 23.9638C8.73996 23.139 9.27982 22.2692 9.7447 21.3545C9.77469 21.2945 9.7447 21.2345 9.68471 21.2195C8.82994 20.8896 8.02015 20.4997 7.22536 20.0498C7.16537 20.0198 7.16537 19.9299 7.21036 19.8849C7.37532 19.7649 7.54027 19.6299 7.70523 19.51C7.73522 19.48 7.78021 19.48 7.8102 19.495C12.9689 21.8493 18.5324 21.8493 23.6311 19.495C23.6611 19.48 23.706 19.48 23.736 19.51C23.901 19.6449 24.0659 19.7649 24.2309 19.8999C24.2909 19.9448 24.2909 20.0348 24.2159 20.0648C23.4361 20.5297 22.6113 20.9046 21.7566 21.2345C21.6966 21.2495 21.6816 21.3245 21.6966 21.3695C22.1764 22.2842 22.7163 23.154 23.3011 23.9788C23.3461 23.9938 23.3911 24.0088 23.4361 23.9938C26.0154 23.199 28.6098 21.9993 31.309 20.0198C31.339 20.0048 31.354 19.9748 31.354 19.9448C32.0139 13.1516 30.2593 7.25817 26.7053 2.02454C26.6903 2.00954 26.6753 1.99455 26.6453 1.99455ZM10.5245 16.3608C8.9799 16.3608 7.69023 14.9362 7.69023 13.1816C7.69023 11.4271 8.9499 10.0024 10.5245 10.0024C12.1141 10.0024 13.3737 11.4421 13.3587 13.1816C13.3587 14.9362 12.0991 16.3608 10.5245 16.3608ZM20.9768 16.3608C19.4322 16.3608 18.1425 14.9362 18.1425 13.1816C18.1425 11.4271 19.4022 10.0024 20.9768 10.0024C22.5663 10.0024 23.826 11.4421 23.811 13.1816C23.811 14.9362 22.5663 16.3608 20.9768 16.3608Z" fill="#171717"/>
</svg>
