<svg width="25" height="24" viewBox="0 0 25 24" fill="none" xmlns="http://www.w3.org/2000/svg">
<path d="M12.2979 0C10.6829 0 9.08376 0.318095 7.59171 0.936124C6.09966 1.55415 4.74395 2.46001 3.60198 3.60198C1.29567 5.90829 0 9.03631 0 12.2979C0 17.7336 3.5295 22.3453 8.41178 23.981C9.02668 24.0793 9.22344 23.6981 9.22344 23.3661V21.2877C5.81692 22.0256 5.09134 19.6398 5.09134 19.6398C4.52564 18.2132 3.72627 17.832 3.72627 17.832C2.60716 17.0695 3.81236 17.0941 3.81236 17.0941C5.04215 17.1802 5.69394 18.3608 5.69394 18.3608C6.76386 20.2301 8.57165 19.6767 9.27263 19.3815C9.38332 18.5822 9.70306 18.0411 10.0474 17.7336C7.31726 17.4262 4.45185 16.3685 4.45185 11.683C4.45185 10.318 4.91917 9.22344 5.71853 8.35029C5.59556 8.04284 5.16513 6.76386 5.84151 5.10364C5.84151 5.10364 6.87454 4.77159 9.22344 6.35803C10.195 6.08747 11.2526 5.9522 12.2979 5.9522C13.3432 5.9522 14.4009 6.08747 15.3724 6.35803C17.7213 4.77159 18.7543 5.10364 18.7543 5.10364C19.4307 6.76386 19.0003 8.04284 18.8773 8.35029C19.6767 9.22344 20.144 10.318 20.144 11.683C20.144 16.3808 17.2663 17.4139 14.5238 17.7213C14.9666 18.1025 15.3724 18.8527 15.3724 19.9964V23.3661C15.3724 23.6981 15.5692 24.0916 16.1964 23.981C21.0786 22.333 24.5958 17.7336 24.5958 12.2979C24.5958 10.6829 24.2778 9.08376 23.6597 7.59171C23.0417 6.09966 22.1358 4.74395 20.9939 3.60198C19.8519 2.46001 18.4962 1.55415 17.0041 0.936124C15.5121 0.318095 13.9129 0 12.2979 0Z" fill="#171717"/>
</svg>
