<svg width="24" height="24" viewBox="0 0 24 24" fill="none" xmlns="http://www.w3.org/2000/svg">
<path d="M23.7259 14.3734C23.6052 14.2524 23.4538 14.1666 23.2879 14.1251C23.1221 14.0837 22.9481 14.0881 22.7846 14.1381C20.9897 14.6807 19.0812 14.7262 17.2625 14.2697C15.4437 13.8132 13.7829 12.8719 12.457 11.546C11.1311 10.22 10.1897 8.55922 9.73324 6.74049C9.27675 4.92176 9.32225 3.01326 9.86488 1.21834C9.91524 1.05479 9.92006 0.880603 9.87883 0.714513C9.83759 0.548424 9.75186 0.396717 9.63085 0.275709C9.50984 0.154701 9.35814 0.0689692 9.19205 0.0277346C9.02596 -0.0135001 8.85177 -0.00867764 8.68822 0.0416831C6.20667 0.801859 4.02809 2.32534 2.4625 4.39533C1.09335 6.2131 0.258206 8.37665 0.0508907 10.6429C-0.156425 12.9092 0.272303 15.1883 1.28891 17.2243C2.30551 19.2604 3.86972 20.9726 5.80579 22.1686C7.74186 23.3646 9.97308 23.9971 12.2488 23.995C14.9037 24.0031 17.488 23.14 19.6053 21.5381C21.6753 19.9725 23.1988 17.7939 23.9589 15.3124C24.0087 15.1495 24.0133 14.9761 23.9723 14.8107C23.9313 14.6453 23.8461 14.4942 23.7259 14.3734ZM18.4733 20.0343C16.4795 21.5361 14.0104 22.267 11.5204 22.0927C9.03039 21.9183 6.68719 20.8504 4.92212 19.0855C3.15705 17.3205 2.08893 14.9774 1.91438 12.4875C1.73982 9.99749 2.47059 7.52826 3.97216 5.53434C4.95044 4.24244 6.21519 3.19519 7.66687 2.47502C7.58418 3.05538 7.5425 3.64085 7.54215 4.22707C7.54557 7.47154 8.83596 10.5822 11.1301 12.8763C13.4243 15.1705 16.535 16.4609 19.7794 16.4643C20.3668 16.4642 20.9535 16.4225 21.535 16.3396C20.8142 17.7916 19.7661 19.0563 18.4733 20.0343Z" fill="#F5F5F5"/>
</svg>
