<svg width="24" height="24" viewBox="0 0 24 24" fill="none" xmlns="http://www.w3.org/2000/svg">
<path fill-rule="evenodd" clip-rule="evenodd" d="M12 0C12.4418 0 12.8 0.358173 12.8 0.8V4C12.8 4.44182 12.4418 4.8 12 4.8C11.5582 4.8 11.2 4.44182 11.2 4V0.8C11.2 0.358173 11.5582 0 12 0ZM3.51472 3.51472C3.82714 3.2023 4.33366 3.2023 4.6461 3.51472L6.90883 5.77746C7.22125 6.08987 7.22125 6.59642 6.90883 6.90883C6.59642 7.22125 6.08987 7.22125 5.77746 6.90883L3.51472 4.6461C3.2023 4.33366 3.2023 3.82714 3.51472 3.51472ZM0.8 11.2C0.358173 11.2 0 11.5582 0 12C0 12.4418 0.358173 12.8 0.8 12.8H4C4.44182 12.8 4.8 12.4418 4.8 12C4.8 11.5582 4.44182 11.2 4 11.2H0.8ZM3.51472 20.4853C3.2023 20.1728 3.2023 19.6664 3.51472 19.3539L5.77746 17.0912C6.08987 16.7787 6.59642 16.7787 6.90883 17.0912C7.22125 17.4035 7.22125 17.9101 6.90883 18.2226L4.6461 20.4853C4.33366 20.7978 3.82714 20.7978 3.51472 20.4853ZM20 11.2C19.5582 11.2 19.2 11.5582 19.2 12C19.2 12.4418 19.5582 12.8 20 12.8H23.2C23.6418 12.8 24 12.4418 24 12C24 11.5582 23.6418 11.2 23.2 11.2H20ZM17.0912 6.90883C16.7787 6.59642 16.7787 6.08987 17.0912 5.77746L19.3539 3.51472C19.6664 3.2023 20.1728 3.2023 20.4853 3.51472C20.7978 3.82714 20.7978 4.33366 20.4853 4.6461L18.2226 6.90883C17.9101 7.22125 17.4035 7.22125 17.0912 6.90883ZM12.8 20C12.8 19.5582 12.4418 19.2 12 19.2C11.5582 19.2 11.2 19.5582 11.2 20V23.2C11.2 23.6418 11.5582 24 12 24C12.4418 24 12.8 23.6418 12.8 23.2V20ZM17.0912 17.0912C17.4035 16.7787 17.9101 16.7787 18.2226 17.0912L20.4853 19.3539C20.7978 19.6664 20.7978 20.1728 20.4853 20.4853C20.1728 20.7978 19.6664 20.7978 19.3539 20.4853L17.0912 18.2226C16.7787 17.9101 16.7787 17.4035 17.0912 17.0912ZM8.8 12C8.8 10.2327 10.2327 8.8 12 8.8C13.7673 8.8 15.2 10.2327 15.2 12C15.2 13.7673 13.7673 15.2 12 15.2C10.2327 15.2 8.8 13.7673 8.8 12ZM12 7.2C9.34904 7.2 7.2 9.34904 7.2 12C7.2 14.651 9.34904 16.8 12 16.8C14.651 16.8 16.8 14.651 16.8 12C16.8 9.34904 14.651 7.2 12 7.2Z" fill="#171717"/>
</svg>
